<svg width="56" height="60" viewBox="0 0 56 60" fill="none" xmlns="http://www.w3.org/2000/svg">
<path opacity="0.3" d="M23.7127 1.17634C26.4363 -0.392113 29.792 -0.392114 32.5157 1.17634L50.9401 11.7862C53.6638 13.3546 55.3417 16.2533 55.3417 19.3902V40.6098C55.3417 43.7467 53.6638 46.6454 50.9401 48.2138L32.5157 58.8237C29.792 60.3921 26.4363 60.3921 23.7127 58.8237L5.28826 48.2138C2.56458 46.6454 0.886719 43.7467 0.886719 40.6098V19.3902C0.886719 16.2533 2.56458 13.3546 5.28826 11.7862L23.7127 1.17634Z" fill="#2B59FF"/>
<path d="M18.5749 26.2852H14.8509C14.3368 26.2852 13.9199 26.7009 13.9199 27.2138V42.0708C13.9199 42.5836 14.3367 42.9994 14.8509 42.9994H18.5748C19.0889 42.9994 19.5058 42.5837 19.5058 42.0708V27.2137C19.5058 26.7009 19.0891 26.2852 18.5749 26.2852Z" fill="#2B59FF"/>
<path d="M41.8291 28.7471C41.6649 27.3067 40.3158 26.2857 38.8624 26.2857H31.6042C32.221 25.1841 32.5521 22.0682 32.5374 20.7953C32.5131 18.6884 30.7638 17 28.6513 17H27.8831C27.3685 17 26.9521 17.4153 26.9521 17.9286C26.9521 20.0759 26.1138 23.9516 24.5329 25.5286C23.4687 26.5899 22.559 26.9745 21.3662 27.5691V41.5023C23.1925 42.1094 25.5112 43 29.0455 43H35.1355C37.1421 43 38.705 41.1463 37.9274 39.1878C39.1121 38.8659 39.9857 37.7823 39.9857 36.5C39.9857 36.1382 39.9157 35.7918 39.7893 35.4735C41.7857 34.931 42.5205 32.4723 41.1349 30.9286C41.644 30.3613 41.9247 29.5855 41.8291 28.7471Z" fill="#2B59FF"/>
</svg>
