<svg width="55" height="60" viewBox="0 0 55 60" fill="none" xmlns="http://www.w3.org/2000/svg">
<path opacity="0.3" d="M22.8259 1.17634C25.5496 -0.392113 28.9053 -0.392114 31.629 1.17634L50.0534 11.7862C52.7771 13.3546 54.4549 16.2533 54.4549 19.3902V40.6098C54.4549 43.7467 52.7771 46.6454 50.0534 48.2138L31.629 58.8237C28.9053 60.3921 25.5496 60.3921 22.8259 58.8237L4.40154 48.2138C1.67786 46.6454 0 43.7467 0 40.6098V19.3902C0 16.2533 1.67786 13.3546 4.40154 11.7862L22.8259 1.17634Z" fill="#00BB98"/>
<path d="M26.9366 29.2666C29.779 29.2666 32.0832 26.9683 32.0832 24.1333C32.0832 21.2983 29.779 19 26.9366 19C24.0942 19 21.79 21.2983 21.79 24.1333C21.79 26.9683 24.0942 29.2666 26.9366 29.2666Z" fill="#00BB98"/>
<path d="M37.2288 32.2004C39.2591 32.2004 40.9049 30.5588 40.9049 28.5338C40.9049 26.5088 39.2591 24.8672 37.2288 24.8672C35.1986 24.8672 33.5527 26.5088 33.5527 28.5338C33.5527 30.5588 35.1986 32.2004 37.2288 32.2004Z" fill="#00BB98"/>
<path d="M16.7474 32.2004C18.7776 32.2004 20.4235 30.5588 20.4235 28.5338C20.4235 26.5088 18.7776 24.8672 16.7474 24.8672C14.7171 24.8672 13.0713 26.5088 13.0713 28.5338C13.0713 30.5588 14.7171 32.2004 16.7474 32.2004Z" fill="#00BB98"/>
<path d="M26.9359 30.7324C21.6658 30.7324 17.3779 35.0092 17.3779 40.2657C17.3779 40.6705 17.7073 40.999 18.1132 40.999H35.7586C36.1644 40.999 36.4938 40.6705 36.4938 40.2657C36.4938 35.0092 32.206 30.7324 26.9359 30.7324Z" fill="#00BB98"/>
<path d="M18.0153 33.8244C17.5654 33.7291 17.108 33.666 16.6434 33.666C12.9952 33.666 10.0264 36.6272 10.0264 40.2659C10.0264 40.6707 10.3558 40.9993 10.7616 40.9993H16.0434C15.9611 40.769 15.9081 40.5241 15.9081 40.2659C15.9081 37.8592 16.6963 35.6372 18.0153 33.8244Z" fill="#00BB98"/>
<path d="M37.2294 33.666C36.7647 33.666 36.3074 33.7291 35.8574 33.8244C37.1764 35.6372 37.9646 37.8592 37.9646 40.2659C37.9646 40.5241 37.9117 40.769 37.8293 40.9993H43.1111C43.517 40.9993 43.8464 40.6707 43.8464 40.2659C43.8464 36.6272 40.8775 33.666 37.2294 33.666Z" fill="#00BB98"/>
</svg>
