<svg width="56" height="60" viewBox="0 0 56 60" fill="none" xmlns="http://www.w3.org/2000/svg">
<path opacity="0.3" d="M23.7693 1.17634C26.493 -0.392113 29.8487 -0.392114 32.5724 1.17634L50.9968 11.7862C53.7204 13.3546 55.3983 16.2533 55.3983 19.3902V40.6098C55.3983 43.7467 53.7204 46.6454 50.9968 48.2138L32.5724 58.8237C29.8487 60.3921 26.493 60.3921 23.7693 58.8237L5.3449 48.2138C2.62122 46.6454 0.943359 43.7467 0.943359 40.6098V19.3902C0.943359 16.2533 2.62122 13.3546 5.3449 11.7862L23.7693 1.17634Z" fill="#FFC83E"/>
<path d="M31.2128 38.0099L29.5629 39.6555V32.5461C29.5629 31.8436 28.9926 31.2734 28.2869 31.2734C27.5813 31.2734 27.0109 31.8436 27.0109 32.5461V39.6555L25.3611 38.0099C24.8622 37.5123 24.0557 37.5123 23.5568 38.0099C23.0579 38.5075 23.0579 39.3119 23.5568 39.8095L27.3836 43.6264C27.501 43.7448 27.6426 43.8377 27.7996 43.9026C27.9553 43.9662 28.1211 44.0006 28.287 44.0006C28.4529 44.0006 28.6188 43.9662 28.7744 43.9026C28.9314 43.8377 29.073 43.7448 29.1904 43.6264L33.0172 39.8095C33.5161 39.3119 33.5161 38.5075 33.0172 38.0099C32.5182 37.5122 31.7117 37.5122 31.2128 38.0099Z" fill="#FFC83E"/>
<path d="M39.6982 25.1941C39.1151 20.8159 35.0956 16 30.2621 16C27.6705 16 25.0355 17.2702 23.2759 19.3078C22.7132 19.1028 22.1172 18.9972 21.5099 18.9972C18.7601 18.9972 16.5066 21.1583 16.3688 23.868C14.3374 25.1738 12.9746 27.5856 12.9746 29.9999C12.9746 31.5119 13.4773 33.1893 14.354 34.6008C15.5151 36.4729 17.6448 37.6362 19.911 37.6362H20.863C21.0505 37.1067 21.3427 36.618 21.7523 36.2095C22.4746 35.4878 23.4367 35.0908 24.4587 35.0908V32.5453C24.4587 30.4402 26.175 28.7271 28.2868 28.7271C30.3973 28.7271 32.1148 30.4402 32.1148 32.5453V35.0908C33.1357 35.0908 34.0978 35.4878 34.8213 36.2095C35.2309 36.618 35.5218 37.1067 35.7106 37.6362H37.0466C40.3579 37.6362 43.2174 35.1773 43.5569 32.0375C43.5849 31.7868 43.599 31.531 43.599 31.2727C43.599 28.3505 42.0984 26.0634 39.6982 25.1941Z" fill="#FFC83E"/>
</svg>
