<svg width="56" height="60" viewBox="0 0 56 60" fill="none" xmlns="http://www.w3.org/2000/svg">
<path opacity="0.3" d="M23.656 1.17634C26.3797 -0.392113 29.7354 -0.392114 32.4591 1.17634L50.8835 11.7862C53.6072 13.3546 55.285 16.2533 55.285 19.3902V40.6098C55.285 43.7467 53.6072 46.6454 50.8835 48.2138L32.4591 58.8237C29.7354 60.3921 26.3797 60.3921 23.656 58.8237L5.23162 48.2138C2.50794 46.6454 0.830078 43.7467 0.830078 40.6098V19.3902C0.830078 16.2533 2.50794 13.3546 5.23162 11.7862L23.656 1.17634Z" fill="#222D61"/>
<path d="M41.0844 26.8942L34.8285 32.9763L36.3069 41.561C36.3181 41.6302 36.3099 41.701 36.2834 41.7659C36.2568 41.8307 36.2129 41.8871 36.1565 41.9287C36.0915 41.9745 36.014 41.9994 35.9345 42C35.8739 42.0002 35.8143 41.9847 35.7615 41.955L28.031 37.9028L20.3006 41.955C20.2388 41.9876 20.1691 42.0025 20.0993 41.9979C20.0295 41.9932 19.9624 41.9693 19.9056 41.9287C19.8491 41.8871 19.8052 41.8307 19.7786 41.7659C19.7521 41.701 19.744 41.6302 19.7551 41.561L21.2335 32.9763L14.9776 26.8942C14.928 26.8451 14.893 26.7832 14.8766 26.7154C14.8603 26.6476 14.8632 26.5765 14.8851 26.5103C14.907 26.444 14.9469 26.3852 15.0005 26.3403C15.0541 26.2955 15.1191 26.2664 15.1883 26.2564L23.8291 25.0032L27.6924 17.1914C27.7275 17.133 27.7771 17.0847 27.8364 17.0512C27.8958 17.0176 27.9628 17 28.031 17C28.0992 17 28.1663 17.0176 28.2256 17.0512C28.2849 17.0847 28.3345 17.133 28.3696 17.1914L32.2329 25.0032L40.8737 26.2564C40.9429 26.2664 41.008 26.2955 41.0615 26.3403C41.1151 26.3852 41.155 26.444 41.1769 26.5103C41.1988 26.5765 41.2017 26.6476 41.1854 26.7154C41.169 26.7832 41.1341 26.8451 41.0844 26.8942Z" fill="#222D61"/>
</svg>
